<svg width="141.42" height="141.42" xmlns="http://www.w3.org/2000/svg">

 <title/>
 <g>
  <title>background</title>
  <rect fill="none" id="canvas_background" height="402" width="582" y="-1" x="-1"/>
 </g>
 <g>
  <title>Layer 1</title>
  <rect fill="#1da1f2" id="svg_2" width="141.42" ry="10" rx="10" height="141.42" class="cls-2"/>
  <path mix-blend-mode="overlay" opacity="0.3" id="svg_3" d="m110.86,37.45l-8.86,6.55l-14.85,-6l-9.69,6.25l-2.5,18l-17.74,0.24l-18.84,-15.11l-3.67,-1.67l1.08,5.75l9.92,11.17l-9.5,3.87l16.42,10l10.83,13.29l-20.5,11l-14.76,-3.41l44.05,44l59.17,0a10,10 0 0 0 10,-10l0,-63.38l-30.56,-30.55z"/>
  <path fill="#ffffff" id="svg_4" d="m113.21,44.35a34.34,34.34 0 0 1 -10,2.74a17.41,17.41 0 0 0 7.67,-9.64a34.83,34.83 0 0 1 -11.07,4.23a17.45,17.45 0 0 0 -30.19,11.93a18,18 0 0 0 0.45,4a49.49,49.49 0 0 1 -35.94,-18.25a17.47,17.47 0 0 0 5.4,23.29a17.43,17.43 0 0 1 -7.9,-2.18l0,0.22a17.44,17.44 0 0 0 14,17.09a17.49,17.49 0 0 1 -4.6,0.62a16.89,16.89 0 0 1 -3.28,-0.32a17.45,17.45 0 0 0 16.25,12.11a35,35 0 0 1 -21.66,7.47a33.67,33.67 0 0 1 -4.16,-0.25a49.37,49.37 0 0 0 26.73,7.84c32.08,0 49.62,-26.57 49.62,-49.62c0,-0.75 0,-1.51 0,-2.26a35.2,35.2 0 0 0 8.68,-9.02z" class="cls-4"/>
 </g>
</svg>