<svg width="141.42" height="141.42" xmlns="http://www.w3.org/2000/svg">

 <title/>
 <g>
  <title>background</title>
  <rect fill="none" id="canvas_background" height="402" width="582" y="-1" x="-1"/>
 </g>
 <g>
  <title>Layer 1</title>
  <rect fill="#262626" id="svg_2" width="141.42" ry="10" rx="10" height="141.42" class="cls-2"/>
  <path mix-blend-mode="overlay" opacity="0.3" id="svg_3" d="m102.7,39.45l-0.51,0.83l-0.19,7.43l0.25,35.55l-0.75,14.2l-11.5,5.75l-26,-0.21l-22,-2l-4.79,-10.29l2.19,11.94l38.77,38.77l53.25,0a10,10 0 0 0 10,-10l0,-53.25l-38.72,-38.72z"/>
  <path fill="#ffffff" id="svg_4" d="m92.59,35l-43.76,0a13.81,13.81 0 0 0 -13.83,13.83l0,43.76a13.81,13.81 0 0 0 13.79,13.79l43.8,0a13.81,13.81 0 0 0 13.79,-13.79l0,-43.76a13.81,13.81 0 0 0 -13.79,-13.83zm4,8.22l1.57,0l0,12.13l-12.05,0l-0.11,-12.05l10.59,-0.08zm-36,20.13a12.52,12.52 0 1 1 -2.38,7.32a12.55,12.55 0 0 1 2.32,-7.28l0.06,-0.04zm38.9,29.2a6.85,6.85 0 0 1 -6.84,6.84l-43.82,0a6.85,6.85 0 0 1 -6.83,-6.8l0,-29.2l10.64,0a19.5,19.5 0 1 0 36.14,0l10.65,0l0.06,29.16z" class="cls-4"/>
 </g>
</svg>