<svg width="141.42" height="141.42" xmlns="http://www.w3.org/2000/svg">

 <title/>
 <g>
  <title>background</title>
  <rect fill="none" id="canvas_background" height="402" width="582" y="-1" x="-1"/>
 </g>
 <g>
  <title>Layer 1</title>
  <rect fill="#bd081c" id="svg_2" width="141.42" ry="10" rx="10" height="141.42" class="cls-2"/>
  <path mix-blend-mode="overlay" opacity="0.3" id="svg_3" d="m91.66,42.21l-2.51,-0.69l-16.44,-2.52l-14.71,3l-10.29,13l-0.36,18.73l13.19,13.15l-5.62,19.64l34.9,34.9l41.6,0a10,10 0 0 0 10,-10l0,-39.42l-49.76,-49.79z"/>
  <path fill="#ffffff" id="svg_4" d="m72.4,34.71c-19.65,0 -29.56,14.09 -29.56,25.84c0,7.11 2.7,13.44 8.47,15.79a1.42,1.42 0 0 0 2.07,-1c0.19,-0.72 0.64,-2.55 0.85,-3.32a2,2 0 0 0 -0.6,-2.3a12,12 0 0 1 -2.73,-8.11c0,-10.45 7.82,-19.81 20.36,-19.81c11.11,0 17.21,6.79 17.21,15.85c0,11.92 -5.28,22 -13.11,22c-4.33,0 -7.57,-3.58 -6.53,-8c1.24,-5.25 3.65,-10.9 3.65,-14.65c0,-3.38 -1.82,-6.2 -5.58,-6.2c-4.42,0 -8,4.57 -8,10.7a15.89,15.89 0 0 0 1.35,6.5s-4.53,19.18 -5.32,22.54c-1.58,6.69 -0.24,14.89 -0.13,15.71a0.55,0.55 0 0 0 1,0.24c0.4,-0.53 5.67,-7 7.46,-13.53c0.51,-1.84 2.91,-11.37 2.91,-11.37c1.44,2.74 5.64,5.15 10.1,5.15c13.3,0 22.32,-12.11 22.32,-28.34c-0.01,-12.26 -10.4,-23.69 -26.19,-23.69z" class="cls-4"/>
 </g>
</svg>